<svg width="32" height="32" viewBox="0 0 32 32" fill="none" xmlns="http://www.w3.org/2000/svg">
  <!-- Animated gradient background -->
  <defs>
    <linearGradient id="gradient" x1="0%" y1="0%" x2="100%" y2="100%">
      <stop offset="0%" style="stop-color:#3b82f6"/>
      <stop offset="100%" style="stop-color:#1d4ed8"/>
    </linearGradient>
    
    <!-- Clip path for the letters -->
    <clipPath id="letters">
      <path d="M11 7h3v12.5c0 1.5-0.5 2.5-1.5 3S10 23 8 23v-2.5c1 0 1.67-0.25 2-0.75s0.5-1.25 0.5-2.25L11 7z"/>
      <path d="M21 7l-5 18h-3l5-18h3z"/>
    </clipPath>
  </defs>
  
  <!-- Main background -->
  <rect width="32" height="32" rx="6" fill="url(#gradient)"/>
  
  <!-- Glowing effect -->
  <circle cx="16" cy="16" r="12" fill="white" fill-opacity="0.1"/>
  
  <!-- Letters with clip path -->
  <g clip-path="url(#letters)">
    <rect width="32" height="32" fill="white"/>
    <!-- Subtle overlay pattern -->
    <path d="M0 0h32v32H0z" fill="url(#gradient)" fill-opacity="0.2"/>
  </g>
  
  <!-- Decorative dots -->
  <circle cx="26" cy="6" r="1.5" fill="white" fill-opacity="0.6"/>
  <circle cx="6" cy="26" r="1.5" fill="white" fill-opacity="0.6"/>
</svg> 